<svg width="31" height="26" viewBox="0 0 31 26" fill="none" xmlns="http://www.w3.org/2000/svg">
<path d="M27.9845 2.64009C25.6168 0.153314 22.132 -0.576362 19.1087 0.451057C17.8852 0.866218 16.7933 1.60219 15.8787 2.52057L12.3376 6.0767C11.8741 6.54219 11.5776 7.16283 11.5672 7.82122C11.5547 8.62009 11.2394 9.41477 10.6151 10.0144C9.45007 11.1341 7.56051 11.1509 6.37875 10.0501C5.08424 8.84654 5.05501 6.81477 6.29106 5.57348C6.8715 4.99057 7.62523 4.68864 8.38732 4.66767C8.9093 4.65299 9.41457 4.46848 9.78413 4.09735L9.90732 3.97364C11.3751 2.5017 10.3186 -0.05846 8.24534 0.00444333C6.15534 0.0673465 4.08622 0.899767 2.49106 2.49961C-0.828724 5.83348 -0.828724 11.2411 2.49106 14.5749L3.14666 15.2333L5.02787 17.1225C6.71908 18.8209 9.46051 18.8209 11.1517 17.1225L18.1629 10.0815C18.7058 9.53638 19.0085 8.8067 19.0566 8.03719C19.1025 7.29073 19.4157 6.55896 19.9961 5.99703C21.1591 4.87106 23.0549 4.85219 24.2387 5.95509C25.5333 7.15864 25.5625 9.19041 24.3264 10.4317C23.8149 10.9454 23.1697 11.2411 22.5016 11.3186C21.7729 11.4046 21.0839 11.6898 20.5661 12.2119L12.7594 20.0517C11.4294 21.3873 11.4294 23.5554 12.7594 24.8911C14.0894 26.2267 16.2483 26.2267 17.5783 24.8911L27.1931 15.2354L27.7276 14.6986C31.014 11.3962 31.1978 6.0159 27.9845 2.64219V2.64009Z" fill="url(#paint0_linear_1_42257)"/>
<defs>
<linearGradient id="paint0_linear_1_42257" x1="2.29479" y1="22.3519" x2="22.1671" y2="1.20391" gradientUnits="userSpaceOnUse">
<stop stop-color="#8350CB"/>
<stop offset="1" stop-color="#FE6283"/>
</linearGradient>
</defs>
</svg>
